<?xml version="1.0" encoding="utf-8"?>
<!-- Generator: Adobe Illustrator 16.0.2, SVG Export Plug-In . SVG Version: 6.00 Build 0)  -->
<!DOCTYPE svg PUBLIC "-//W3C//DTD SVG 1.1//EN" "http://www.w3.org/Graphics/SVG/1.1/DTD/svg11.dtd">
<svg version="1.1"
	 id="svg2989" sodipodi:docname="bell_font_awesome.svg" inkscape:version="0.48.3.1 r9886" xmlns:inkscape="http://www.inkscape.org/namespaces/inkscape" xmlns:cc="http://creativecommons.org/ns#" xmlns:rdf="http://www.w3.org/1999/02/22-rdf-syntax-ns#" xmlns:svg="http://www.w3.org/2000/svg" xmlns:dc="http://purl.org/dc/elements/1.1/" xmlns:sodipodi="http://sodipodi.sourceforge.net/DTD/sodipodi-0.dtd"
	 xmlns="http://www.w3.org/2000/svg" xmlns:xlink="http://www.w3.org/1999/xlink" x="0px" y="0px" width="595.281px"
	 height="841.891px" viewBox="0 0 595.281 841.891" enable-background="new 0 0 595.281 841.891" xml:space="preserve">
<sodipodi:namedview  inkscape:current-layer="svg2989" inkscape:window-maximized="0" inkscape:window-y="25" inkscape:window-x="0" inkscape:pageshadow="2" inkscape:window-height="480" inkscape:window-width="640" inkscape:pageopacity="0" showgrid="false" pagecolor="#ffffff" guidetolerance="10" inkscape:zoom="0.13169643" inkscape:cy="896" objecttolerance="10" gridtolerance="10" bordercolor="#666666" inkscape:cx="896" id="namedview2995" borderopacity="1">
	</sodipodi:namedview>
<g id="g2991" transform="matrix(1,0,0,-1,83.525424,1313.0508)">
	<path id="path2993" inkscape:connector-curvature="0" fill="#25733C" d="M219.263,634.688c0,3.432-1.717,5.148-5.148,5.148
		c-12.656,0-23.543,4.559-32.66,13.675c-9.117,9.117-13.675,20.004-13.675,32.66c0,3.433-1.716,5.148-5.148,5.148
		c-3.433,0-5.148-1.716-5.148-5.148c0-15.659,5.524-29.013,16.571-40.061s24.401-16.571,40.061-16.571
		C217.546,629.539,219.263,631.255,219.263,634.688z M5.284,727.359h417.661c-35.18,38.827-61.619,82.963-79.316,132.409
		c-17.697,49.445-26.547,101.412-26.547,155.899c0,54.916-34.322,82.373-102.967,82.373s-102.967-27.457-102.967-82.373
		c0-54.487-8.849-106.454-26.546-155.899C66.904,810.322,40.465,766.186,5.284,727.359z M481.83,727.359
		c0-11.155-4.076-20.809-12.227-28.96c-8.152-8.151-17.805-12.228-28.959-12.228H296.49c0-22.738-8.045-42.152-24.135-58.241
		c-16.088-16.089-35.502-24.133-58.24-24.133s-42.152,8.044-58.241,24.133c-16.089,16.089-24.133,35.503-24.133,58.241H-12.414
		c-11.155,0-20.808,4.076-28.959,12.228c-8.151,8.151-12.227,17.805-12.227,28.96c40.758,34.536,71.541,77.172,92.349,127.904
		c20.808,50.733,31.212,104.201,31.212,160.404c0,35.395,10.297,63.496,30.89,84.304c20.594,20.809,48.91,33.357,84.948,37.647
		c-1.716,3.861-2.574,7.83-2.574,11.906c0,8.58,3.003,15.874,9.01,21.881c6.006,6.006,13.3,9.009,21.88,9.009
		c8.58,0,15.875-3.003,21.881-9.009c6.006-6.007,9.01-13.301,9.01-21.881c0-4.076-0.857-8.045-2.574-11.906
		c36.039-4.29,64.354-16.839,84.947-37.647c20.594-20.808,30.891-48.909,30.891-84.304c0-56.203,10.404-109.671,31.213-160.404
		C410.289,804.531,441.072,761.895,481.83,727.359z"/>
</g>
<script  xmlns=""></script>
</svg>
