<?xml version="1.0" encoding="utf-8"?>
<!-- Generator: Adobe Illustrator 16.0.2, SVG Export Plug-In . SVG Version: 6.00 Build 0)  -->
<!DOCTYPE svg PUBLIC "-//W3C//DTD SVG 1.1//EN" "http://www.w3.org/Graphics/SVG/1.1/DTD/svg11.dtd">
<svg version="1.1" id="Layer_1" xmlns="http://www.w3.org/2000/svg" xmlns:xlink="http://www.w3.org/1999/xlink" x="0px" y="0px"
	 width="996px" height="688px" viewBox="-171.86 103.445 996 688" enable-background="new -171.86 103.445 996 688"
	 xml:space="preserve">
<g>
	<g>
		
			<image overflow="visible" opacity="0.75" width="339" height="310" xlink:href="82B790A4.png"  transform="matrix(1 0 0 1 156.1401 485.9558)">
		</image>
		<g>
			<rect x="277.003" y="606.276" fill-rule="evenodd" clip-rule="evenodd" fill="#726926" width="98.027" height="69.64"/>
		</g>
	</g>
	
		<image overflow="visible" opacity="0.75" width="782" height="538" xlink:href="82B790AC.png"  transform="matrix(1 0 0 1 -64.8599 188.9558)">
	</image>
	<g>
		<g>
			<path fill="#FFFFFF" d="M596.275,525.913c0,42.86-34.527,80.363-77.387,80.363H133.146c-42.86,0-77.387-38.098-77.387-80.363
				c0-42.859,34.526-78.577,77.387-78.577c4.762,0,8.929-0.595,13.691,0.596c2.381-52.385,42.265-94.055,90.482-94.055
				c27.978,0,52.385,13.097,69.052,34.526c14.883-45.836,55.361-78.577,102.984-78.577c60.123,0,108.936,52.98,108.936,118.461
				c0,5.953-0.596,12.501-1.189,17.858c0.594,0,0.594,1.786,1.189,1.786C561.152,446.741,596.275,483.053,596.275,525.913z"/>
		</g>
	</g>
	<path fill-rule="evenodd" clip-rule="evenodd" fill="#25733C" d="M375.162,675.916l-0.183-121.316l52.539-0.078L325.855,444.645
		L224.517,554.824l52.539-0.076l0.183,121.316L375.162,675.916z"/>
</g>
</svg>
