<?xml version="1.0" encoding="utf-8"?>
<!-- Generator: Adobe Illustrator 16.0.2, SVG Export Plug-In . SVG Version: 6.00 Build 0)  -->
<!DOCTYPE svg PUBLIC "-//W3C//DTD SVG 1.1//EN" "http://www.w3.org/Graphics/SVG/1.1/DTD/svg11.dtd">
<svg version="1.1" id="Layer_1" xmlns="http://www.w3.org/2000/svg" xmlns:xlink="http://www.w3.org/1999/xlink" x="0px" y="0px"
	 width="595.281px" height="841.891px" viewBox="0 0 595.281 841.891" enable-background="new 0 0 595.281 841.891"
	 xml:space="preserve">
<path fill="#25733C" d="M74.41,123.305v595.28h446.46V321.732v-24.804L347.248,123.305h-24.805H74.41z M124.017,172.912h198.426
	v148.819h148.819v347.246H124.017V172.912z"/>
<path fill="#25733C" d="M396.709,607.143c0,13.549-4.186,24.248-12.557,32.096
	c-8.37,7.847-19.491,11.771-33.363,11.771H200.465c-13.874,0-24.996-3.924-33.365-11.771c-8.371-7.848-12.555-18.547-12.555-32.096
	c0-5.983,0.2-11.828,0.602-17.529c0.402-5.701,1.204-11.855,2.408-18.461c1.204-6.605,2.724-12.73,4.558-18.377
	s4.3-11.15,7.396-16.514s6.649-9.937,10.663-13.719c4.014-3.782,8.916-6.804,14.705-9.061c5.79-2.259,12.183-3.389,19.177-3.389
	c1.146,0,3.611,1.212,7.395,3.642c3.784,2.429,7.968,5.139,12.555,8.13c4.586,2.992,10.72,5.702,18.403,8.13
	c7.682,2.428,15.421,3.642,23.218,3.642c7.797,0,15.536-1.214,23.22-3.642c7.689-2.428,13.823-5.138,18.406-8.13
	c4.587-2.991,8.772-5.701,12.556-8.13c3.783-2.43,6.248-3.642,7.396-3.642c6.992,0,13.388,1.13,19.175,3.389
	c5.791,2.257,10.693,5.278,14.705,9.061c4.015,3.782,7.568,8.355,10.665,13.719c3.096,5.363,5.559,10.867,7.396,16.514
	c1.834,5.646,3.353,11.771,4.557,18.377s2.008,12.76,2.408,18.461S396.709,601.159,396.709,607.143z M341.672,455.897
	c0,17.953-6.449,33.28-19.349,45.982c-12.895,12.704-28.47,19.055-46.701,19.055c-18.229,0-33.795-6.351-46.694-19.055
	c-12.899-12.702-19.348-28.029-19.348-45.982c0-17.954,6.449-33.277,19.348-45.98c12.899-12.703,28.464-19.053,46.694-19.053
	c18.23,0,33.806,6.351,46.701,19.053C335.223,422.619,341.672,437.943,341.672,455.897z M440.736,494.004
	c0,8.808-3.209,15.498-9.631,20.071c-6.422,4.572-14.331,6.858-23.734,6.858h-23.046c-11.809-13.889-27.003-21.114-45.577-21.679
	c9.288-13.211,13.932-27.663,13.932-43.358c0-3.275-0.286-7-0.858-11.178c7.565,2.597,15.189,3.895,22.873,3.895
	c6.766,0,13.586-1.213,20.466-3.641c6.879-2.428,12.469-4.827,16.768-7.198c4.302-2.372,6.794-3.557,7.483-3.557
	C433.627,434.218,440.736,454.147,440.736,494.004z M418.722,390.863c0,11.968-4.299,22.187-12.897,30.657
	c-8.599,8.463-18.977,12.698-31.13,12.698s-22.53-4.235-31.131-12.698c-8.599-8.47-12.897-18.688-12.897-30.657
	s4.299-22.187,12.897-30.656c8.601-8.467,18.978-12.703,31.131-12.703s22.531,4.235,31.13,12.703
	C414.423,368.676,418.722,378.895,418.722,390.863z"/>
</svg>
