<?xml version="1.0" encoding="utf-8"?>
<!-- Generator: Adobe Illustrator 16.0.2, SVG Export Plug-In . SVG Version: 6.00 Build 0)  -->
<!DOCTYPE svg PUBLIC "-//W3C//DTD SVG 1.1//EN" "http://www.w3.org/Graphics/SVG/1.1/DTD/svg11.dtd">
<svg version="1.1" id="Layer_1" xmlns="http://www.w3.org/2000/svg" xmlns:xlink="http://www.w3.org/1999/xlink" x="0px" y="0px"
	 width="595.281px" height="841.891px" viewBox="0 0 595.281 841.891" enable-background="new 0 0 595.281 841.891"
	 xml:space="preserve">
<path fill="#25733C" d="M74.41,123.305v595.28h446.46V321.732v-24.804L347.248,123.305h-24.805H74.41z M124.017,172.912h198.426
	v148.818h148.818v347.246H124.017V172.912z"/>
<g>
	
		<rect x="44.026" y="574.412" fill="#25733C" stroke="#FFFFFF" stroke-width="20" stroke-miterlimit="10" width="72.626" height="161.745"/>
	<path fill="#25733C" stroke="#FFFFFF" stroke-width="20" stroke-miterlimit="10" d="M518.973,619.949
		c-31.914,5.866-84.137,152.568-252.315,24.882h101.227c0,0,23.369,1.608,23.369-17.124c0-18.669,0-29.958,0-29.958
		s-4.668-23.337-23.369-23.337c-18.699,0-235.158,0-235.158,0v157.394c0,0,158.845,49.826,214.88,49.826
		c0,0,140.209,6.213,233.648-102.773C581.287,678.859,550.887,614.116,518.973,619.949z"/>
</g>
<path fill="none" stroke="#000000" stroke-width="50" stroke-linejoin="round" stroke-miterlimit="10" d="M567.898,655.794
	c0,42.86-34.527,80.363-77.387,80.363H104.771c-42.86,0-77.387-38.098-77.387-80.363c0-42.859,34.526-78.577,77.387-78.577
	c4.762,0,8.929-0.595,13.691,0.596c2.381-52.385,42.265-94.055,90.482-94.055c27.978,0,52.385,13.097,69.053,34.526
	c14.882-45.836,55.36-78.577,102.983-78.577c60.123,0,108.936,52.98,108.936,118.461c0,5.953-0.596,12.501-1.189,17.858
	c0.594,0,0.594,1.786,1.189,1.786C532.775,576.622,567.898,612.935,567.898,655.794z"/>
</svg>
