<?xml version="1.0" encoding="utf-8"?>
<!-- Generator: Adobe Illustrator 16.0.2, SVG Export Plug-In . SVG Version: 6.00 Build 0)  -->
<!DOCTYPE svg PUBLIC "-//W3C//DTD SVG 1.1//EN" "http://www.w3.org/Graphics/SVG/1.1/DTD/svg11.dtd">
<svg version="1.1" id="Layer_1" xmlns="http://www.w3.org/2000/svg" xmlns:xlink="http://www.w3.org/1999/xlink" x="0px" y="0px"
	 width="595.281px" height="841.891px" viewBox="0 0 595.281 841.891" enable-background="new 0 0 595.281 841.891"
	 xml:space="preserve">
<path fill="#25733C" d="M74.41,123.305v595.28h446.46V321.732v-24.804L347.248,123.305h-24.805H74.41z M124.017,172.912h198.426
	v148.818h148.818v347.246H124.017V172.912z"/>
<g>
	<path fill="#FFFFFF" stroke="#25733C" stroke-width="20" stroke-miterlimit="10" d="M351.304,593.905
		c0,47.747-17.151,88.51-51.458,122.292c-34.297,33.787-75.717,50.677-124.204,50.677c-48.481,0-89.879-16.89-124.185-50.677
		C17.151,682.414,0,641.652,0,593.905c0-47.75,17.151-88.503,51.457-122.285c34.306-33.783,75.701-50.674,124.185-50.674
		c48.482,0,89.907,16.893,124.204,50.674C334.152,505.4,351.304,546.155,351.304,593.905z"/>
	<path fill="#25733C" d="M251.717,680.522c0,11.688-3.61,20.915-10.831,27.684c-7.22,6.77-16.812,10.153-28.777,10.153H82.448
		c-11.967,0-21.561-3.384-28.778-10.153c-7.22-6.769-10.83-15.996-10.83-27.684c0-5.16,0.173-10.201,0.52-15.12
		c0.347-4.917,1.038-10.225,2.077-15.922c1.038-5.698,2.349-10.981,3.931-15.852c1.582-4.871,3.709-9.617,6.379-14.244
		c2.67-4.626,5.736-8.571,9.197-11.833c3.462-3.263,7.691-5.87,12.684-7.815c4.995-1.949,10.509-2.924,16.542-2.924
		c0.988,0,3.114,1.045,6.379,3.143c3.264,2.094,6.872,4.433,10.829,7.012c3.956,2.58,9.247,4.918,15.874,7.013
		c6.626,2.094,13.301,3.142,20.026,3.142s13.4-1.048,20.028-3.142c6.633-2.095,11.923-4.433,15.876-7.013
		c3.957-2.579,7.567-4.918,10.83-7.012c3.263-2.098,5.389-3.143,6.379-3.143c6.031,0,11.548,0.975,16.54,2.924
		c4.995,1.945,9.223,4.552,12.684,7.815c3.463,3.262,6.528,7.207,9.199,11.833c2.67,4.626,4.794,9.373,6.378,14.244
		c1.582,4.87,2.893,10.153,3.932,15.852c1.038,5.697,1.732,11.005,2.077,15.922C251.544,670.321,251.717,675.36,251.717,680.522z
		 M204.245,550.066c0,15.485-5.563,28.706-16.689,39.661c-11.123,10.958-24.556,16.436-40.281,16.436
		c-15.724,0-29.15-5.478-40.276-16.436c-11.125-10.955-16.688-24.176-16.688-39.661c0-15.486,5.563-28.702,16.688-39.659
		c11.126-10.957,24.552-16.435,40.276-16.435s29.159,5.479,40.281,16.435C198.682,521.362,204.245,534.579,204.245,550.066z
		 M289.692,582.935c0,7.597-2.768,13.368-8.309,17.312c-5.539,3.944-12.36,5.916-20.47,5.916h-19.878
		c-10.187-11.979-23.291-18.212-39.313-18.698c8.012-11.396,12.017-23.86,12.017-37.398c0-2.826-0.247-6.038-0.74-9.642
		c6.525,2.24,13.101,3.358,19.729,3.358c5.836,0,11.719-1.045,17.653-3.14c5.934-2.094,10.755-4.163,14.463-6.208
		c3.711-2.047,5.86-3.068,6.455-3.068C283.56,531.366,289.692,548.556,289.692,582.935z M270.704,493.971
		c0,10.324-3.708,19.139-11.124,26.444c-7.417,7.299-16.369,10.951-26.851,10.951s-19.433-3.652-26.852-10.951
		c-7.417-7.306-11.124-16.119-11.124-26.444c0-10.322,3.708-19.136,11.124-26.441c7.419-7.303,16.369-10.957,26.852-10.957
		s19.434,3.652,26.851,10.957C266.996,474.835,270.704,483.649,270.704,493.971z"/>
</g>
</svg>
