<?xml version="1.0" encoding="utf-8"?>
<!-- Generator: Adobe Illustrator 16.0.2, SVG Export Plug-In . SVG Version: 6.00 Build 0)  -->
<!DOCTYPE svg PUBLIC "-//W3C//DTD SVG 1.1//EN" "http://www.w3.org/Graphics/SVG/1.1/DTD/svg11.dtd">
<svg version="1.1" id="Layer_1" xmlns="http://www.w3.org/2000/svg" xmlns:xlink="http://www.w3.org/1999/xlink" x="0px" y="0px"
	 width="595.281px" height="841.891px" viewBox="0 0 595.281 841.891" enable-background="new 0 0 595.281 841.891"
	 xml:space="preserve">
<path fill="#25733C" d="M74.41,123.305v595.28h446.46V321.732v-24.804L347.248,123.305h-24.805H74.41z M124.017,172.912h198.426
	v148.818h148.818v347.246H124.017V172.912z"/>
<g>
	
		<rect x="44.026" y="574.412" fill="#25733C" stroke="#FFFFFF" stroke-width="20" stroke-miterlimit="10" width="72.626" height="161.745"/>
	<path fill="#25733C" stroke="#FFFFFF" stroke-width="20" stroke-miterlimit="10" d="M518.973,619.949
		c-31.914,5.866-84.137,152.568-252.315,24.882h101.227c0,0,23.369,1.608,23.369-17.124c0-18.669,0-29.958,0-29.958
		s-4.668-23.337-23.369-23.337c-18.699,0-235.158,0-235.158,0v157.394c0,0,158.845,49.826,214.88,49.826
		c0,0,140.209,6.213,233.648-102.773C581.287,678.859,550.887,614.116,518.973,619.949z"/>
</g>
</svg>
