<?xml version="1.0" encoding="utf-8"?>
<!-- Generator: Adobe Illustrator 16.0.2, SVG Export Plug-In . SVG Version: 6.00 Build 0)  -->
<!DOCTYPE svg PUBLIC "-//W3C//DTD SVG 1.1//EN" "http://www.w3.org/Graphics/SVG/1.1/DTD/svg11.dtd">
<svg version="1.1" id="Layer_1" xmlns="http://www.w3.org/2000/svg" xmlns:xlink="http://www.w3.org/1999/xlink" x="0px" y="0px"
	 width="50px" height="50px" viewBox="0 0 50 50" enable-background="new 0 0 50 50" xml:space="preserve">
<circle fill="none" stroke="#25733C" stroke-width="2" stroke-linecap="round" stroke-miterlimit="10" cx="25" cy="25" r="24"/>
<rect fill="none" width="50" height="50"/>
<path fill="#25733C" d="M29.934,35.527c-0.146-1.611-0.091-2.736-0.091-4.209c0.73-0.383,2.038-2.825,2.259-4.889
	c0.574-0.047,1.479-0.607,1.744-2.818c0.143-1.187-0.425-1.855-0.771-2.065c0.934-2.809,2.874-11.499-3.589-12.397
	c-0.664-1.168-2.367-1.759-4.581-1.759c-8.854,0.163-9.922,6.686-7.981,14.156c-0.345,0.21-0.913,0.878-0.771,2.065
	c0.266,2.21,1.17,2.771,1.744,2.818c0.22,2.063,1.58,4.506,2.312,4.889c0,1.473,0.055,2.598-0.091,4.209
	c-1.261,3.391-7.737,3.656-11.473,6.925c3.906,3.933,10.236,6.745,16.917,6.745c6.68,0,14.531-5.273,15.838-6.713
	C37.688,39.186,31.197,38.93,29.934,35.527z"/>
</svg>
